<svg xmlns="http://www.w3.org/2000/svg" viewBox="0 0 100 100" role="img" aria-label="Símbolo MagaBeauty">
  <defs>
    <linearGradient id="mbFaceGradient" x1="0" y1="0" x2="0.3" y2="1">
      <stop offset="0%" stop-color="#A8C3B0"/>
      <stop offset="100%" stop-color="#88A593"/>
    </linearGradient>
  </defs>
  <!-- Perfil feminino em traço único, símbolo de cuidado e individualidade -->
  <path d="M 49.00 99.00 C 48.67 97.67, 48.67 93.67, 47.00 91.00 C 45.33 88.33, 41.33 86.50, 39.00 83.00 C 36.67 79.50, 32.17 74.50, 33.00 70.00 C 33.83 65.50, 45.50 61.17, 44.00 56.00 C 42.50 50.83, 24.67 46.00, 24.00 39.00 C 23.33 32.00, 37.33 18.17, 40.00 14.00 C 41.67 12.83, 46.17 7.83, 50.00 7.00 C 53.83 6.17, 58.83 7.17, 63.00 9.00 C 67.17 10.83, 72.67 14.17, 75.00 18.00 C 77.33 21.83, 77.50 26.67, 77.00 32.00 C 76.50 37.33, 74.17 44.00, 72.00 50.00 C 69.83 56.00, 66.67 62.33, 64.00 68.00 C 61.33 73.67, 58.33 79.00, 56.00 84.00 C 53.67 89.00, 51.00 95.67, 50.00 98.00 " fill="none" stroke="url(#mbFaceGradient)" stroke-width="2.6" stroke-linecap="round" stroke-linejoin="round"/>
  <circle cx="43" cy="85" r="1.6" fill="#E8D5D0"/>
</svg>
