<svg xmlns="http://www.w3.org/2000/svg" viewBox="0 0 100 100" role="img" aria-label="Símbolo MagaBeauty">
  <defs>
    <linearGradient id="mbFaceGradient" x1="0" y1="0" x2="0.3" y2="1">
      <stop offset="0%" stop-color="#A8C3B0"/>
      <stop offset="100%" stop-color="#88A593"/>
    </linearGradient>
  </defs>
  <!-- Perfil feminino minimalista, símbolo de cuidado e individualidade -->
  <path d="M 49 99 C 48.67 97.67, 48.67 93.67, 47 91 C 45.33 88.33, 41.33 86.5, 39 83 C 36.67 79.5, 32.17 74.5, 33 70 C 33.83 65.5, 45.5 61.17, 44 56 C 42.5 50.83, 24.67 46, 24 39 C 23.33 32, 37.33 18.17, 40 14 C 41.67 12.83, 46.17 7.83, 50 7 C 53.83 6.17, 58.83 7.17, 63 9 C 67.17 10.83, 72.67 14.17, 75 18 C 77.33 21.83, 77.5 26.67, 77 32 C 76.5 37.33, 74.17 44, 72 50 C 69.83 56, 66.67 62.33, 64 68 C 61.33 73.67, 58.33 79, 56 84 C 53.67 89, 51 95.67, 50 98 Z" fill="url(#mbFaceGradient)"/>
  <circle cx="43" cy="85" r="1.8" fill="#E8D5D0"/>
</svg>
